<?xml version="1.0" encoding="UTF-8" standalone="no"?>
<!-- Created with Inkscape (http://www.inkscape.org/) -->

<svg
   xmlns:dc="http://purl.org/dc/elements/1.1/"
   xmlns:cc="http://creativecommons.org/ns#"
   xmlns:rdf="http://www.w3.org/1999/02/22-rdf-syntax-ns#"
   xmlns:svg="http://www.w3.org/2000/svg"
   xmlns="http://www.w3.org/2000/svg"
   xmlns:sodipodi="http://sodipodi.sourceforge.net/DTD/sodipodi-0.dtd"
   xmlns:inkscape="http://www.inkscape.org/namespaces/inkscape"
   width="744.09448819"
   height="1052.3622047"
   id="svg2"
   version="1.1"
   inkscape:version="0.48.4 r9939"
   sodipodi:docname="tabblet.svg">
  <defs
     id="defs4" />
  <sodipodi:namedview
     id="base"
     pagecolor="#ffffff"
     bordercolor="#666666"
     borderopacity="1.0"
     inkscape:pageopacity="0.0"
     inkscape:pageshadow="2"
     inkscape:zoom="0.175"
     inkscape:cx="1440.0543"
     inkscape:cy="343.25959"
     inkscape:document-units="px"
     inkscape:current-layer="layer1"
     showgrid="false"
     inkscape:window-width="1360"
     inkscape:window-height="706"
     inkscape:window-x="-8"
     inkscape:window-y="-8"
     inkscape:window-maximized="1" />
  <metadata
     id="metadata7">
    <rdf:RDF>
      <cc:Work
         rdf:about="">
        <dc:format>image/svg+xml</dc:format>
        <dc:type
           rdf:resource="http://purl.org/dc/dcmitype/StillImage" />
        <dc:title></dc:title>
      </cc:Work>
    </rdf:RDF>
  </metadata>
  <g
     inkscape:label="Layer 1"
     inkscape:groupmode="layer"
     id="layer1">
    <g
       id="g3800"
       style="fill:#ffffff;fill-opacity:1"
       inkscape:export-filename="C:\Git\reddit\Tabblet\resources\vector\tabblet2048.png"
       inkscape:export-xdpi="110.62203"
       inkscape:export-ydpi="110.62203">
      <path
         sodipodi:nodetypes="csssssssc"
         inkscape:connector-curvature="0"
         id="path3026"
         d="m 591.42857,889.50504 c 0.0368,-99.40681 185.01211,-521.07748 217.14286,-540 70.08355,-41.27377 153.09692,-39.17297 239.79197,-50.99738 86.695,-11.82442 177.0716,-37.57405 265.9223,-37.57405 72.0124,0 224.1422,-29.35747 288.5714,2.85714 54.9805,27.49023 143.7999,72.90676 197.1429,77.14286 530.6825,42.14286 332.0674,238.49599 402.1428,332.14286 C 2308.4184,815.10027 2144.3761,1042.2718 2080,1106.6479 1749.7836,1436.8643 705.49225,1345.7598 591.42857,889.50504 z"
         style="fill:#ffffff;fill-opacity:1;stroke:#000000;stroke-width:1px;stroke-linecap:butt;stroke-linejoin:miter;stroke-opacity:1" />
      <path
         inkscape:connector-curvature="0"
         id="path3796"
         d="m 1715.239,-5.2675324 c -28.0745,-6.8493176 -41.2231,7.6948847 -51.5178,28.2842714 -47.3078,94.615671 159.2849,79.482821 51.5178,-28.2842714 z"
         style="fill:#ffffff;stroke:#000000;stroke-width:1px;stroke-linecap:butt;stroke-linejoin:miter;stroke-opacity:1;fill-opacity:1" />
    </g>
    <path
       style="fill:#0f0f0f"
       d="m 1339.9286,1310.0503 c -11.275,-0.4249 -40.075,-2.6098 -64,-4.8553 -23.925,-2.2455 -55.875,-5.2275 -71,-6.6266 -40.5274,-3.7491 -62.849,-6.3172 -78,-8.9739 -19.3423,-3.3916 -89.5847,-17.8527 -102,-20.9992 -71.70681,-18.1729 -140.19841,-43.358 -199.78271,-73.4623 -25.031,-12.6466 -42.5616,-22.8783 -67.71731,-39.5227 -55.99371,-37.0485 -82.58978,-61.7406 -120.67262,-112.0338 -31.45268,-41.5372 -49.21953,-84.084 -55.95875,-134.006 -3.02986,-22.44417 -3.31712,-68.67674 -0.54986,-88.49402 6.20088,-44.40662 17.51515,-78.59443 43.18827,-130.5 11.29044,-22.82687 11.05048,-22.57214 30.49592,-59.01523 8.26568,-15.49089 28.82444,-44.62957 36.02413,-54.43725 -17.85444,-47.30818 -2.25287,-99.59965 21.18602,-142.82231 10.49285,-18.96791 22.8639,-36.25742 43.09255,-60.22521 23.95975,-28.3886 64.01695,-55.59448 107.19435,-72.80387 41.2211,-16.42966 58.5672,-19.15789 105.905,-20.67312 46.78141,-1.49742 70.02391,2.41934 95.49901,6.91768 69.2213,-31.81808 109.7143,-55.61393 203.711,-55.61393 l -0.013,-15.66338 c -0.014,-17.55559 2.5028,-34.20915 8.9413,-59.16338 13.1219,-41.84565 23.4969,-66.46571 45.8314,-97 60.7872,-71.527542 112.4524,-105.11978 214.6248,-130.09958 35.7073,-5.082701 75.0894,-6.433595 111.2075,2.48653 32.2996,8.17041 53.3581,21.461316 77.1742,40.21508 17.5252,17.503285 34.1141,37.807281 38.4187,56.094496 3.1372,14.915754 2.8065,32.899694 -6.0161,45.328864 -13.2058,18.60428 -38.5714,34.61258 -61.0796,30.8853 -27.4105,-4.53908 -56.8583,-31.83478 -58.2876,-59.58174 -1.3611,-26.422853 24.1809,-54.683386 49.3823,-62.14147 l -9.6142,-3.67995 c -30.2858,-11.59222 -66.0338,-25.20063 -100.2566,-23.046793 -60.2161,3.789743 -121.7566,26.019269 -169.9286,62.348287 -45.8494,34.577476 -80.0945,85.910376 -101.5177,139.190976 -8.8971,22.12771 -10.7115,69.18479 -9.5908,70.90253 0.7839,1.20148 5.4804,1.16269 32.7618,-0.27055 55.4422,-2.91269 131.2361,-2.09865 173.8467,1.86715 68.3697,6.36322 168.6217,26.30146 225.5,44.84769 12.6899,4.13778 76.4938,26.91712 98.5,35.16661 32.9388,13.80353 66.4606,26.57046 97.8018,43.70392 l 21.0405,-1.74575 c 16.5307,-1.37157 27.1617,-1.62398 49.5991,-1.17765 37.7592,0.75112 50.9919,2.86303 92.0586,14.69228 13.9218,4.01018 20.7715,6.65583 33.5,12.93921 21.7419,10.73281 32.7855,18.25219 45.5587,31.02018 12.7227,12.7175 18.972,20.98236 26.8834,35.55438 11.6864,21.52509 19.5599,44.90447 23.9706,71.17806 3.3757,20.10872 4.1191,29.75728 4.7667,61.86665 0.6763,33.53373 -0.074,43.16357 -5.1132,65.58 l -2.2554,10.03368 4.8762,12.17081 c 11.1533,27.83821 21.3003,64.7425 23.6931,86.1708 3.3146,29.68457 1.7627,82.22564 -3.4708,117.5 -5.0137,33.79339 -23.2411,86.44902 -42.232,122.00002 -25.7513,48.2067 -74.8772,104.0897 -122.1773,138.9825 -12.6702,9.3466 -38.1504,25.937 -49.5,32.2299 -54.6999,30.3287 -117.2973,61.2276 -144,71.0803 -3.85,1.4205 -25,8.4354 -47,15.5885 -75.0969,24.4171 -168.0005,46.3368 -229.5,54.1482 -44.8583,5.6977 -57.913,6.2461 -154.5,6.4898 -49.5,0.1249 -99.225,-0.1205 -110.5,-0.5454 z m 116.9898,-36.9341 c 66.1611,-1.0552 81.0101,-5.7604 116.5102,-9.5878 36.0213,-3.8835 76.3321,-11.313 117,-21.5638 33.8149,-8.5234 92.8348,-25.2641 111,-31.4845 66.9726,-22.9339 68.4025,-23.5011 108,-42.8376 22.6898,-11.08 50.6457,-25.9194 84.5,-44.8537 37.8528,-21.1707 72.1383,-48.232 99.4679,-78.5093 38.4882,-42.6395 58.5879,-75.8798 75.5562,-124.9526 14.0424,-40.61111 17.4119,-63.34773 17.4504,-117.75042 0.022,-30.34959 -0.2536,-37.49108 -1.7525,-45.5 -2.7142,-14.50179 -2.4474,-14.2495 -6.6409,-6.28014 -4.7379,9.00374 -12.995,20.4678 -25.6934,35.67219 -8.1487,9.75687 -11.5318,12.98174 -17.4226,16.60795 -19.4572,10.80269 -32.8802,16.70105 -37.0827,14.11765 -4.4895,-3.82398 -0.994,-11.81737 3.0039,-25.57976 3.7875,-6.62084 8.9902,-17.01497 11.5617,-23.09807 2.5714,-6.0831 6.6848,-14.6331 9.1409,-19 11.0398,-19.62889 27.2062,-53.67167 30.8758,-65.01745 2.1209,-6.5573 4.2013,-12.82237 4.6231,-13.92237 4.0533,-10.56989 12.2038,-39.49551 15.0266,-53.32846 2.8934,-14.17892 3.8234,-67.71477 1.5192,-87.45374 -3.8437,-32.92728 -11.0427,-55.29484 -24.2537,-75.35763 -18.382,-27.91583 -47.716,-44.71514 -101.1629,-57.93511 -36.1902,-8.95157 -64.3864,-9.31971 -183.5105,-2.39604 -24.1793,1.40534 -48.3566,6.70609 -61.9076,13.57291 -7.8676,3.98677 -25.8905,5.94168 -26.9392,4.34372 -2.6612,-4.05504 14.0342,-22.95739 18.6388,-25.69837 9.2294,-5.49399 11.3829,-6.14179 15.814,-7.89672 3.9018,-1.54529 8.3278,-2.38244 8.7569,-2.78106 0.9043,-0.84007 -4.5345,-3.20679 -38.5694,-15.63186 -13.75,-5.01969 -34.225,-12.50374 -45.5,-16.63121 -24.6768,-9.03351 -33.0146,-11.65008 -59.8738,-18.78974 -61.8296,-16.4354 -129.8689,-33.64894 -189.616,-39.51809 -89.3294,-4.25329 -183.8945,-3.50001 -273.1646,2.45282 -37.5645,2.78904 -49.5568,5.84337 -117.3456,29.88703 -27.9982,9.93052 -73.4538,27.90481 -84.3076,33.33736 -23.03251,11.52823 -122.91041,74.44894 -139.19241,87.68794 -13.5105,10.98546 -74.5681,67.48738 -91.3806,84.56236 -27.38276,27.81032 -40.80805,45.04452 -62.0603,79.66751 -8.07081,13.14851 -22.09843,35.38138 -31.17251,49.40638 -16.96767,26.22545 -27.51947,44.54585 -35.53304,61.69372 -28.23012,60.4083 -36.87952,92.67362 -38.06318,141.98905 -1.20488,50.19955 5.6868,84.32093 25.20998,124.81725 16.83686,34.9241 59.14317,86.5902 92.99964,113.5746 38.77161,30.9019 85.03311,59.3976 129.00001,79.4599 83.9296,37.348 156.05881,58.6725 238.42891,75.5944 38.9376,7.5266 63.1073,12.4984 172.5609,20.8805 59.9384,3.1693 131.0583,4.8698 185.5,4.0303 z M 1218.4286,1089.457 c -44.3131,-2.7031 -73.7064,-5.466 -104.5,-9.8225 -57.408,-8.1219 -82.7626,-12.4744 -96.5,-16.5657 -3.3,-0.9828 -10.95,-3.2488 -17,-5.0355 -26.56911,-7.8465 -53.44821,-18.8828 -86.50001,-35.5162 -38.8544,-19.5535 -59.3138,-33.0599 -72.1619,-47.6377 -21.7236,-24.6484 -23.9183,-28.8766 -18.0402,-34.7546 1.9867,-1.98682 4.0514,-3.04832 5.9288,-3.04832 3.6958,0 11.2798,3.82072 18.2733,9.20562 23.3536,17.9824 28.2822,21.2811 41.5,27.7767 34.6089,17.0077 125.54801,46.0863 164.00001,52.4404 42.7355,7.062 99.3471,14.1058 129,16.0506 62.5795,4.1043 79.1532,4.7562 106,4.1697 38.7749,-0.8471 108.6732,-4.9674 162.5,-9.5789 58.2612,-4.9914 86.5268,-7.1218 95.5,-7.198 6.3732,-0.054 34.4143,3.3799 38.8507,4.7578 1.0454,0.3247 1.4731,0.9523 0.9831,1.4423 -0.4772,0.4772 -8.2133,4.4932 -17.1914,8.9245 -31.5772,15.5854 -67.8715,24.7607 -138.2446,34.9487 -27.3045,3.9529 -34.4504,4.6227 -80.8978,7.5828 -13.475,0.8587 -30.3275,1.9925 -37.4499,2.5196 -17.7489,1.3133 -67.4022,0.9642 -94.0501,-0.6613 z m 98.642,-200.9231 c -29.2192,-5.11594 -50.5582,-22.51249 -58.7998,-47.93634 -2.1142,-6.52175 -2.6845,-10.54454 -3.051,-21.52108 -0.396,-11.86298 -0.075,-15.67124 2.651,-31.40552 7.014,-40.48999 9.968,-48.26625 33.8441,-89.09448 16.6171,-28.41531 24.1041,-38.34955 37.0598,-49.17374 17.4471,-14.57657 41.3318,-19.36161 50.8063,-10.17849 l 3.2291,3.12972 c 0,0 1.3854,-1.67201 3.2604,-2.74344 13.05,-3.45533 18.4581,6.95599 24.8388,16.59026 10.8319,16.40051 15.6817,27.51513 19.6229,44.97136 3.3054,14.63977 4.3631,29.72786 4.3747,62.40433 0.011,29.86052 -1.0296,41.02823 -5.0296,54 -4.7039,15.25451 -15.4807,33.96405 -25.7883,44.77087 -9.0325,9.46993 -28.0531,21.12517 -41.1621,25.22285 -7.6862,2.40262 -34.4283,2.96462 -45.8563,0.9637 z m 30.6836,-35.41226 c 11.2224,-1.62266 24.9821,-10.33075 32.8835,-20.81096 9.9796,-13.2366 14.6114,-25.66977 16.4047,-44.03486 1.5087,-15.45101 0.5084,-74.06138 -1.4882,-87.19934 -5.5959,-36.8215 -5.4211,-36.04129 -9.6399,-43.02358 -2.4048,-3.98012 -3.9857,-7.8443 -3.9857,-9.74217 l 0,-3.14553 -4.1257,1.45564 c -2.2692,0.8006 -5.5317,1.456 -7.25,1.45643 -5.0226,10e-4 -15.233,5.48837 -21.8358,11.73462 -10.3242,9.76668 -16.8075,19.67937 -31.0187,47.4259 -18.357,35.84101 -20.1782,40.16056 -23.1202,54.83869 -3.1999,15.96435 -6.0315,44.44354 -5.3194,53.5 1.7275,21.96885 13.2328,34.19884 35.1698,37.38474 8.22,1.19379 15.8174,1.24604 23.3256,0.16042 z M 864.16339,821.63459 c -29.5505,-5.5826 -52.6487,-20.42802 -62.3269,-40.05811 -5.5172,-11.19032 -7.1722,-20.48639 -7.1213,-40 0.051,-19.69244 1.0872,-26.33984 6.7563,-43.35743 5.2422,-15.73611 12.2611,-30.71128 19.2835,-41.14257 8.4501,-12.55191 23.597,-28.52129 38.0863,-40.15448 20.1326,-16.16405 31.9656,-21.57763 45.0123,-20.59299 8.4173,0.63526 19.4018,4.99334 22.0857,8.76245 2.2536,3.16494 2.6508,11.34742 0.9215,18.98502 -1.8966,8.37705 -9.5648,27 -11.1174,27 -1.0934,0 -1.1221,0.15528 1.4155,-7.64466 2.629,-8.08108 3.2552,-26.26979 0.9826,-28.54239 -0.8618,-0.86181 -4.3442,-1.29133 -10.5401,-1.3 -8.5713,-0.012 -9.766,0.24294 -16.213,3.45955 -5.5457,2.76693 -9.6108,6.1195 -20.007,16.5 -20.6999,20.66863 -32.3552,39.27994 -39.9204,63.74504 -5.4409,17.59548 -6.4996,23.85014 -6.4802,38.28246 0.02,14.71296 1.7337,26.19986 4.8081,32.22626 3.6403,7.13557 15.3749,15.29474 28.6397,19.91343 7.4364,2.58931 9.1282,2.78817 24.0152,2.82292 37.5396,-4.18501 61.406,-47.30533 65.564,-75.13236 1.5949,-11.985 0.6317,-65.61263 -1.3979,-77.83024 -0.8224,-4.95 -2.691,-14.175 -4.1526,-20.5 -2.2232,-9.62118 -4.342,-11.26688 -5.8203,-14.78209 -1.5856,-3.7702 -2.3254,-9.77169 -0.2527,-13.93347 2.5913,-5.20295 9.1683,-2.82898 19.7284,3.98342 15.2717,9.8519 23.0538,23.77968 26.9497,48.23214 1.9771,12.40909 1.6556,62.90401 -0.4949,77.72478 -4.1538,28.62774 -15.0084,52.63876 -34.3443,75.97187 -9.6489,11.64347 -22.3314,20.28065 -38.2946,26.07983 -7.199,2.61528 -34.6382,3.3837 -45.7652,1.28162 z M 1979.171,660.74869 c 0,-6.25108 -0.8293,-13.12359 -5.1938,-32.06209 -3.0207,-13.10725 -4.8718,-21.30916 -8.042,-28.32799 -3.1686,-7.16322 -16.7283,-28.84416 -21.9994,-35.17548 -5.9823,-7.18555 -17.2927,-16.43763 -22.7759,-18.63114 -6.0135,-3.29229 -5.8816,-15.3186 -4.9013,-16.42179 7.0107,-5.13745 54.565,41.2111 58.1761,46.44628 8.0387,11.80997 13.4873,22.96555 16.6061,34 2.0378,7.20991 2.299,10.68075 2.6451,35.1438 -1.1473,7.6044 -0.032,14.30175 -1.9091,28.75 -2.8908,3.08592 -12.5796,-8.64932 -12.6058,-13.72159 z M 748.89775,504.71068 c 18.38884,-18.92309 87.06004,-81.35189 103.49344,-94.08559 19.8338,-15.36865 125.0592,-80.3479 140.5907,-86.81822 3.0993,-1.29116 1.1287,-1.39409 -19.5533,-1.0213 -22.2697,0.4014 -23.5738,0.5394 -41.0708,4.3461 -19.7852,4.30453 -26.1697,6.3391 -52.7535,16.81123 -31.1447,12.2688 -65.9923,34.33828 -84.8706,53.74965 -20.2087,20.77939 -43.61303,53.33941 -55.98337,77.88393 -9.36623,18.58392 -10.44007,21.97751 -11.76242,37.17209 -1.5718,18.06072 -1.89326,17.36156 4.65985,10.13491 3.14555,-3.46885 10.90805,-11.64661 17.25,-18.1728 z M 1704.2399,73.79549 c 13.9582,-0.72773 31.5977,-9.00931 35.4115,-22.45611 3.6878,-13.002091 -6.5575,-28.869827 -17.7418,-36.456969 -11.4594,-7.773752 -29.9901,-10.88725 -41.4276,-3.081335 -12.5419,8.559617 -19.4,29.581634 -13.41,43.534594 5.457,12.71136 23.3535,19.18005 37.1679,18.45982 z"
       id="path2996"
       inkscape:connector-curvature="0"
       sodipodi:nodetypes="csssssssssscccssccccccccccaaacsaaacsssccssssssssccsssssscssscccssssssscsssccccsscsssssssssssssccssssssssssccccsssssscssssssscssssscsssscssscccscsssssssssscscsssssssscssssccssssssscsscccssssssssscscscccscccsssssssssssaaaaaa"
       inkscape:export-filename="C:\Git\reddit\Tabblet\resources\vector\tabblet2048.png"
       inkscape:export-xdpi="110.62203"
       inkscape:export-ydpi="110.62203" />
  </g>
</svg>
