<?xml version="1.0" encoding="UTF-8" standalone="no"?>
<!-- Created with Inkscape (http://www.inkscape.org/) -->

<svg
   xmlns:dc="http://purl.org/dc/elements/1.1/"
   xmlns:cc="http://creativecommons.org/ns#"
   xmlns:rdf="http://www.w3.org/1999/02/22-rdf-syntax-ns#"
   xmlns:svg="http://www.w3.org/2000/svg"
   xmlns="http://www.w3.org/2000/svg"
   xmlns:sodipodi="http://sodipodi.sourceforge.net/DTD/sodipodi-0.dtd"
   xmlns:inkscape="http://www.inkscape.org/namespaces/inkscape"
   width="744.09448819"
   height="1052.3622047"
   id="svg2"
   version="1.1"
   inkscape:version="0.48.4 r9939"
   sodipodi:docname="SubredditBirthdayVectory.svg"
   inkscape:export-filename="C:\Users\Owner\Desktop\Pi\Imergers\Misc\SubredditBirthday3k.png"
   inkscape:export-xdpi="135.7413"
   inkscape:export-ydpi="135.7413">
  <defs
     id="defs4">
    <clipPath
       id="clipPath20">
      <path
         id="path22"
         d="M 0,792 612,792 612,0 0,0 0,792 z" />
    </clipPath>
  </defs>
  <sodipodi:namedview
     id="base"
     pagecolor="#ffffff"
     bordercolor="#666666"
     borderopacity="1.0"
     inkscape:pageopacity="0.0"
     inkscape:pageshadow="2"
     inkscape:zoom="1.16"
     inkscape:cx="-960.24477"
     inkscape:cy="772.34363"
     inkscape:document-units="px"
     inkscape:current-layer="layer1"
     showgrid="false"
     inkscape:window-width="1360"
     inkscape:window-height="706"
     inkscape:window-x="-8"
     inkscape:window-y="-8"
     inkscape:window-maximized="1"
     showguides="true"
     inkscape:guide-bbox="true" />
  <metadata
     id="metadata7">
    <rdf:RDF>
      <cc:Work
         rdf:about="">
        <dc:format>image/svg+xml</dc:format>
        <dc:type
           rdf:resource="http://purl.org/dc/dcmitype/StillImage" />
        <dc:title></dc:title>
      </cc:Work>
    </rdf:RDF>
  </metadata>
  <g
     inkscape:label="Layer 1"
     inkscape:groupmode="layer"
     id="layer1">
    <path
       style="fill:#ffffff;fill-opacity:1;fill-rule:nonzero;stroke:none"
       id="path26"
       d="m -547.54951,277.67285 c 104.72041,0 189.58821,102.39998 189.58821,228.77779 0,126.42079 -84.8678,228.77779 -189.58821,228.77779 -104.72041,0 -189.50226,-102.357 -189.50226,-228.77779 0,-126.37781 84.78185,-228.77779 189.50226,-228.77779"
       inkscape:connector-curvature="0" />
    <path
       style="fill:none;stroke:#000000;stroke-width:47.26813889;stroke-linecap:butt;stroke-linejoin:miter;stroke-miterlimit:4;stroke-opacity:1;stroke-dasharray:none"
       id="path30"
       d="m -547.54951,277.67285 c 104.72041,0 189.58821,102.39998 189.58821,228.77779 0,126.42079 -84.8678,228.77779 -189.58821,228.77779 -104.72041,0 -189.50226,-102.357 -189.50226,-228.77779 0,-126.37781 84.78185,-228.77779 189.50226,-228.77779 z"
       inkscape:connector-curvature="0" />
    <path
       style="fill:#ffffff;fill-opacity:1;fill-rule:nonzero;stroke:none"
       id="path34"
       d="m -845.84584,973.43407 c 2.70718,-8.46529 4.64087,-17.23139 4.64087,-26.42719 0,-58.48358 -58.48358,-105.88063 -130.63194,-105.88063 -72.14839,0 -130.58899,47.39705 -130.58899,105.88063 0,9.1958 1.8907,17.9619 4.6409,26.42719 l 251.93916,0 z"
       inkscape:connector-curvature="0" />
    <path
       style="fill:none;stroke:#000000;stroke-width:47.26813889;stroke-linecap:round;stroke-linejoin:round;stroke-miterlimit:4;stroke-opacity:1;stroke-dasharray:none"
       id="path38"
       d="m -845.84584,973.43407 c 2.70718,-8.46529 4.64087,-17.23139 4.64087,-26.42719 0,-58.48358 -58.48358,-105.88063 -130.63194,-105.88063 -72.14839,0 -130.58899,47.39705 -130.58899,105.88063 0,9.1958 1.8907,17.9619 4.6409,26.42719 l 251.93916,0 z"
       inkscape:connector-curvature="0" />
    <path
       style="fill:#ffffff;fill-opacity:1;fill-rule:nonzero;stroke:none"
       id="path42"
       d="m -388.39769,973.43407 c 2.70718,-8.46529 4.5979,-17.23139 4.5979,-26.42719 0,-58.48358 -58.48358,-105.88063 -130.63195,-105.88063 -72.14836,0 -130.58897,47.39705 -130.58897,105.88063 0,9.1958 1.89072,17.9619 4.5979,26.42719 l 252.02512,0 z"
       inkscape:connector-curvature="0" />
    <path
       style="fill:none;stroke:#000000;stroke-width:47.26813889;stroke-linecap:round;stroke-linejoin:round;stroke-miterlimit:4;stroke-opacity:1;stroke-dasharray:none"
       id="path46"
       d="m -388.39769,973.43407 c 2.70718,-8.46529 4.5979,-17.23139 4.5979,-26.42719 0,-58.48358 -58.48358,-105.88063 -130.63195,-105.88063 -72.14836,0 -130.58897,47.39705 -130.58897,105.88063 0,9.1958 1.89072,17.9619 4.5979,26.42719 l 252.02512,0 z"
       inkscape:connector-curvature="0" />
    <path
       style="fill:#ffffff;fill-opacity:1;fill-rule:nonzero;stroke:none"
       id="path50"
       d="m -1100.1269,-206.10795 c 0,64.15576 -51.995,116.107737 -116.1507,116.107737 -64.1128,0 -116.0648,-51.951977 -116.0648,-116.107737 0,-64.15576 51.952,-116.15071 116.0648,-116.15071 64.1557,0 116.1507,51.99495 116.1507,116.15071"
       inkscape:connector-curvature="0" />
    <path
       style="fill:none;stroke:#000000;stroke-width:47.26813889;stroke-linecap:butt;stroke-linejoin:miter;stroke-miterlimit:4;stroke-opacity:1;stroke-dasharray:none"
       id="path54"
       d="m -1100.1269,-206.10795 c 0,64.15576 -51.995,116.107737 -116.1507,116.107737 -64.1128,0 -116.0648,-51.951977 -116.0648,-116.107737 0,-64.15576 51.952,-116.15071 116.0648,-116.15071 64.1557,0 116.1507,51.99495 116.1507,116.15071 z"
       inkscape:connector-curvature="0" />
    <path
       style="fill:#ffffff;fill-opacity:1;fill-rule:nonzero;stroke:none"
       id="path58"
       d="m -150.35964,-206.10795 c 0,64.15576 -51.99495,116.107737 -116.15071,116.107737 -64.11278,0 -116.06476,-51.951977 -116.06476,-116.107737 0,-64.15576 51.95198,-116.15071 116.06476,-116.15071 64.15576,0 116.15071,51.99495 116.15071,116.15071"
       inkscape:connector-curvature="0" />
    <path
       style="fill:none;stroke:#000000;stroke-width:47.26813889;stroke-linecap:butt;stroke-linejoin:miter;stroke-miterlimit:4;stroke-opacity:1;stroke-dasharray:none"
       id="path62"
       d="m -150.35964,-206.10795 c 0,64.15576 -51.99495,116.107737 -116.15071,116.107737 -64.11278,0 -116.06476,-51.951977 -116.06476,-116.107737 0,-64.15576 51.95198,-116.15071 116.06476,-116.15071 64.15576,0 116.15071,51.99495 116.15071,116.15071 z"
       inkscape:connector-curvature="0" />
    <path
       style="fill:#ffffff;fill-opacity:1;fill-rule:nonzero;stroke:none"
       id="path70"
       d="m -938.52577,277.67285 c 104.72041,0 189.54524,102.39998 189.54524,228.77779 0,126.42079 -84.82483,228.77779 -189.54524,228.77779 -104.67743,0 -189.50223,-102.357 -189.50223,-228.77779 0,-126.37781 84.8248,-228.77779 189.50223,-228.77779"
       inkscape:connector-curvature="0" />
    <path
       style="fill:none;stroke:#000000;stroke-width:47.26813889;stroke-linecap:butt;stroke-linejoin:miter;stroke-miterlimit:4;stroke-opacity:1;stroke-dasharray:none"
       id="path74"
       d="m -938.52577,277.67285 c 104.72041,0 189.54524,102.39998 189.54524,228.77779 0,126.42079 -84.82483,228.77779 -189.54524,228.77779 -104.67743,0 -189.50223,-102.357 -189.50223,-228.77779 0,-126.37781 84.8248,-228.77779 189.50223,-228.77779 z"
       inkscape:connector-curvature="0" />
    <path
       style="fill:#ffffff;fill-opacity:1;fill-rule:nonzero;stroke:none"
       id="path86"
       d="m -808.12157,973.55868 128.48339,0 c 114.13107,-59.38597 198.69807,-272.43636 198.69807,-526.86786 0,-300.36753 -117.74064,-543.841419 -262.93976,-543.841419 -145.2421,0 -262.93973,243.473889 -262.93973,543.841419 0,254.4315 84.56696,467.48189 198.69803,526.86786"
       inkscape:connector-curvature="0" />
    <path
       style="fill:none;stroke:#000000;stroke-width:47.26813889;stroke-linecap:butt;stroke-linejoin:miter;stroke-miterlimit:4;stroke-opacity:1;stroke-dasharray:none"
       id="path90"
       d="m -808.12157,973.55868 128.48339,0 c 114.13107,-59.38597 198.69807,-272.43636 198.69807,-526.86786 0,-300.36753 -117.74064,-543.841419 -262.93976,-543.841419 -145.2421,0 -262.93973,243.473889 -262.93973,543.841419 0,254.4315 84.56696,467.48189 198.69803,526.86786 z"
       inkscape:connector-curvature="0" />
    <path
       style="fill:#ffffff;fill-opacity:1;fill-rule:nonzero;stroke:none"
       id="path94"
       d="m -217.98315,-46.414694 c 0,189.545234 -235.4383,343.166684 -525.9225,343.166684 -290.44125,0 -525.87955,-153.62145 -525.87955,-343.166684 0,-189.545236 235.4383,-343.209656 525.87955,-343.209656 290.4842,0 525.9225,153.66442 525.9225,343.209656"
       inkscape:connector-curvature="0" />
    <path
       style="fill:none;stroke:#000000;stroke-width:47.26813889;stroke-linecap:butt;stroke-linejoin:miter;stroke-miterlimit:4;stroke-opacity:1;stroke-dasharray:none"
       id="path98"
       d="m -217.98315,-46.414694 c 0,189.545234 -235.4383,343.166684 -525.9225,343.166684 -290.44125,0 -525.87955,-153.62145 -525.87955,-343.166684 0,-189.545236 235.4383,-343.209656 525.87955,-343.209656 290.4842,0 525.9225,153.66442 525.9225,343.209656 z"
       inkscape:connector-curvature="0" />
    <path
       style="fill:none;stroke:#000000;stroke-width:47.26813889;stroke-linecap:round;stroke-linejoin:round;stroke-miterlimit:4;stroke-opacity:1;stroke-dasharray:none"
       id="path102"
       d="m -882.20793,973.43407 283.43695,0"
       inkscape:connector-curvature="0" />
    <path
       style="fill:#ff4500;fill-opacity:1;fill-rule:nonzero;stroke:none"
       id="path158"
       d="m -865.00662,-113.41083 c 0,33.947118 -27.54443,61.44858 -61.44858,61.44858 -33.99009,0 -61.49155,-27.501462 -61.49155,-61.44858 0,-33.99009 27.50146,-61.49155 61.49155,-61.49155 33.90415,0 61.44858,27.50146 61.44858,61.49155"
       inkscape:connector-curvature="0" />
    <path
       style="fill:none;stroke:#ff4500;stroke-width:47.26813889;stroke-linecap:butt;stroke-linejoin:miter;stroke-miterlimit:4;stroke-opacity:1;stroke-dasharray:none"
       id="path162"
       d="m -865.00662,-113.41083 c 0,33.947118 -27.54443,61.44858 -61.44858,61.44858 -33.99009,0 -61.49155,-27.501462 -61.49155,-61.44858 0,-33.99009 27.50146,-61.49155 61.49155,-61.49155 33.90415,0 61.44858,27.50146 61.44858,61.49155 z"
       inkscape:connector-curvature="0" />
    <path
       style="fill:#ff4500;fill-opacity:1;fill-rule:nonzero;stroke:none"
       id="path166"
       d="m -494.48458,-113.41083 c 0,33.947118 -27.50146,61.44858 -61.44858,61.44858 -33.90415,0 -61.44858,-27.501462 -61.44858,-61.44858 0,-33.99009 27.54443,-61.49155 61.44858,-61.49155 33.94712,0 61.44858,27.50146 61.44858,61.49155"
       inkscape:connector-curvature="0" />
    <path
       style="fill:none;stroke:#ff4500;stroke-width:47.26813889;stroke-linecap:butt;stroke-linejoin:miter;stroke-miterlimit:4;stroke-opacity:1;stroke-dasharray:none"
       id="path170"
       d="m -494.48458,-113.41083 c 0,33.947118 -27.50146,61.44858 -61.44858,61.44858 -33.90415,0 -61.44858,-27.501462 -61.44858,-61.44858 0,-33.99009 27.54443,-61.49155 61.44858,-61.49155 33.94712,0 61.44858,27.50146 61.44858,61.49155 z"
       inkscape:connector-curvature="0" />
    <path
       style="fill:none;stroke:#000000;stroke-width:47.26813889;stroke-linecap:round;stroke-linejoin:miter;stroke-miterlimit:4;stroke-opacity:1;stroke-dasharray:none"
       id="path174"
       d="m -923.01752,111.55542 c 45.80712,45.80712 119.7173,54.61619 180.994,54.61619"
       inkscape:connector-curvature="0" />
    <path
       style="fill:none;stroke:#000000;stroke-width:47.26813889;stroke-linecap:round;stroke-linejoin:miter;stroke-miterlimit:4;stroke-opacity:1;stroke-dasharray:none"
       id="path178"
       d="m -559.69742,111.55542 c -45.85009,45.80712 -119.67433,54.61619 -180.994,54.61619"
       inkscape:connector-curvature="0" />
    <path
       style="fill:#3b8fee;fill-opacity:1;stroke:#000000;stroke-width:0.61913401px;stroke-linecap:butt;stroke-linejoin:miter;stroke-opacity:1"
       d="m -1080.5312,-310.1875 c 171.46588,40.04446 350.01019,37.52668 524.29849,18.61948 45.51084,-4.69702 90.82631,-11.26252 135.85771,-19.55698 -110.78125,-192.91667 -211.26799,-385.83333 -322.04924,-578.75 -109.27083,193.22917 -228.83618,386.45833 -338.10696,579.6875 z"
       id="path4278"
       inkscape:connector-curvature="0"
       sodipodi:nodetypes="ccccc" />
    <path
       inkscape:connector-curvature="0"
       style="fill:#52e5ff;fill-opacity:1;stroke:none"
       d="m -663.49892,-843.94181 -193.3125,62.90625 -54.4375,96.25 285.75,-93.03125 -38,-66.125 z"
       id="rect4330" />
    <path
       inkscape:connector-curvature="0"
       style="fill:#52e5ff;fill-opacity:1;stroke:none"
       d="m -596.2597,-726.08297 -365.28125,118.875 -54.46865,96.25 457.7499,-148.96875 -38,-66.15625 z"
       id="rect4332" />
    <path
       inkscape:connector-curvature="0"
       style="fill:#52e5ff;fill-opacity:1;stroke:none"
       d="m -522.07004,-593.73707 -556.31256,181.09375 -54.3437,96 c 1.182,-0.25696 2.3554,-0.55477 3.5313,-0.9375 l 645.12496,-210 -38,-66.15625 z"
       id="rect4334" />
    <path
       inkscape:connector-curvature="0"
       style="fill:#52e5ff;fill-opacity:1;stroke:none"
       d="m -448.46875,-460.25 -575.75005,187.375 c -10.7508,3.49921 -18.6834,11.57163 -22.375,21.34375 46.69476,8.92371 94.11093,14.88881 141.12505,18.53125 l 495,-161.09375 -38,-66.15625 z"
       id="rect4336" />
    <path
       inkscape:connector-curvature="0"
       style="fill:#000000;fill-opacity:1;stroke:#000000;stroke-width:0.61913401px;stroke-linecap:butt;stroke-linejoin:miter;stroke-opacity:1"
       d="m -742.42424,-990.875 -413.79456,712.0625 c 356.27376,111.76048 813.81255,3.1875 813.81255,3.1875 z m 0,101 322.04924,578.75 c -45.0314,8.29446 -90.33291,14.86548 -135.84375,19.5625 -174.2883,18.9072 -352.84662,21.41946 -524.31245,-18.625 109.27073,-193.22917 228.83613,-386.45833 338.10696,-579.6875 z"
       id="path3506"
       sodipodi:nodetypes="ccccccccc" />
  </g>
</svg>
