<?xml version="1.0" encoding="UTF-8" standalone="no"?>
<!-- Created with Inkscape (http://www.inkscape.org/) -->

<svg
   xmlns:dc="http://purl.org/dc/elements/1.1/"
   xmlns:cc="http://creativecommons.org/ns#"
   xmlns:rdf="http://www.w3.org/1999/02/22-rdf-syntax-ns#"
   xmlns:svg="http://www.w3.org/2000/svg"
   xmlns="http://www.w3.org/2000/svg"
   xmlns:sodipodi="http://sodipodi.sourceforge.net/DTD/sodipodi-0.dtd"
   xmlns:inkscape="http://www.inkscape.org/namespaces/inkscape"
   width="744.09448819"
   height="1052.3622047"
   id="svg2"
   version="1.1"
   inkscape:version="0.48.4 r9939"
   sodipodi:docname="New document 1">
  <defs
     id="defs4" />
  <sodipodi:namedview
     id="base"
     pagecolor="#ffffff"
     bordercolor="#666666"
     borderopacity="1.0"
     inkscape:pageopacity="0.0"
     inkscape:pageshadow="2"
     inkscape:zoom="0.0875"
     inkscape:cx="3178.5484"
     inkscape:cy="1220.7154"
     inkscape:document-units="px"
     inkscape:current-layer="layer1"
     showgrid="false"
     inkscape:window-width="1360"
     inkscape:window-height="706"
     inkscape:window-x="-8"
     inkscape:window-y="-8"
     inkscape:window-maximized="1" />
  <metadata
     id="metadata7">
    <rdf:RDF>
      <cc:Work
         rdf:about="">
        <dc:format>image/svg+xml</dc:format>
        <dc:type
           rdf:resource="http://purl.org/dc/dcmitype/StillImage" />
        <dc:title></dc:title>
      </cc:Work>
    </rdf:RDF>
  </metadata>
  <g
     inkscape:label="Layer 1"
     inkscape:groupmode="layer"
     id="layer1">
    <path
       style="fill:#fe4400"
       d="m 106.92861,26.6649 c -139.563013,-6.679335 -282.51735,-83.265855 -348.57869,-208.89448 -40.67975,-106.63996 -14.35559,-233.13285 58.52451,-319.97968 70.16628,-100.13523 178.1019792,-180.96253 300.13445,-201.75 62.53854,-28.68729 155.33697,6.53137 215.75126,42.81465 116.71827,85.22179 203.49542,227.92482 188.7395,376.41266 -6.18905,170.74686 -169.34925,291.6809238 -328.07103,311.04715 -28.77527,1.963318 -57.7008,1.575142 -86.5,0.3497 z m -260.18005,-281.37416 c 31.05197,-88.12359 68.837918,-177.62027 143.2771013,-238.12762 30.7788657,-32.50007 116.1040987,-93.6143 31.9721077,-64.82131 -121.632665,23.84921 -224.054819,154.8022 -191.962669,279.44003 8.78789,-0.11172 6.58737,41.18736 16.71346,23.5089 z M 1508.9286,-18.18005 c -147.8383,1.167652 -290.68,-76.278024 -381.4543,-190.70349 -60.3922,-78.01467 -46.4394,-183.68807 -12.7866,-269.32572 22.8659,-79.4737 76.4649,-154.62507 145.2409,-200.51992 123.1459,-72.25384 283.187,-83.53207 413.333,-24.58443 130.5878,62.93339 224.2273,206.12171 209.56,353.00377 2.7826,106.31164 -47.7466,213.647 -140.5542,268.967611 -66.869,49.861956 -150.8411,69.095826 -233.3388,63.162179 z m -347.793,-345.27921 c 20.1685,-95.68442 99.4576,-164.65665 167.0234,-229.51717 29.4361,-14.66777 108.0896,-66.01313 25.9505,-45.37211 -87.2585,20.74616 -170.969,83.55752 -185.4475,176.85 -2.15,24.15686 -30.8758,87.46974 -7.5264,98.03928 z"
       id="path2996"
       inkscape:connector-curvature="0"
       inkscape:export-filename="C:\Users\Owner\Desktop\Pi\Imergers\Misc\Superclippy16png.png"
       inkscape:export-xdpi="0.58299989"
       inkscape:export-ydpi="0.58299989" />
    <path
       style="fill:#000000"
       d="m -432.14199,-491.24496 c -36.01738,-101.53934 20.07048,-210.00388 73.6209,-294.75 132.28796,-197.5279 331.563545,-344.44314 552.7354,-427.98114 62.53333,-4.5236 48.74345,117.1051 54.36934,177.7578 3.22111,68.63258 34.71158,130.99344 -72.66039,165.45157 -162.611267,39.58026 -329.5484,90.6469 -454.20866,208.24887 -58.24547,49.12437 -117.37619,118.60437 -153.85659,171.2729 z m 2452.18289,-61.9117 c -73.5586,-90.22609 -140.895,-195.54824 -252.6707,-244.12301 -138.8088,-74.74709 -296.3275,-107.67734 -452.9525,-110.90948 -20.7413,-41.53029 -12.3366,-100.19335 -7.6944,-149.20555 -0.1977,-68.5288 9.1215,-158.8118 67.7741,-198.0956 92.8361,22.9996 187.5882,59.0388 267.7169,111.3375 182.9957,131.7932 323.5108,325.94818 381.3436,544.65784 -2.1062,5.77092 9.7653,60.95847 -3.517,46.3383 z"
       id="path3010"
       inkscape:connector-curvature="0"
       sodipodi:nodetypes="ccccccccccccccc"
       inkscape:export-filename="C:\Users\Owner\Desktop\Pi\Imergers\Misc\Superclippy16png.png"
       inkscape:export-xdpi="0.58299989"
       inkscape:export-ydpi="0.58299989" />
  </g>
</svg>
