<?xml version="1.0" encoding="UTF-8" standalone="no"?>
<!-- Created with Inkscape (http://www.inkscape.org/) -->

<svg
   xmlns:dc="http://purl.org/dc/elements/1.1/"
   xmlns:cc="http://creativecommons.org/ns#"
   xmlns:rdf="http://www.w3.org/1999/02/22-rdf-syntax-ns#"
   xmlns:svg="http://www.w3.org/2000/svg"
   xmlns="http://www.w3.org/2000/svg"
   xmlns:sodipodi="http://sodipodi.sourceforge.net/DTD/sodipodi-0.dtd"
   xmlns:inkscape="http://www.inkscape.org/namespaces/inkscape"
   width="744.09448819"
   height="1052.3622047"
   id="svg2"
   version="1.1"
   inkscape:version="0.91 r13725"
   sodipodi:docname="SuperclippyVector.svg">
  <defs
     id="defs4" />
  <sodipodi:namedview
     id="base"
     pagecolor="#ffffff"
     bordercolor="#666666"
     borderopacity="1.0"
     inkscape:pageopacity="0.0"
     inkscape:pageshadow="2"
     inkscape:zoom="0.35"
     inkscape:cx="773.22048"
     inkscape:cy="627.08196"
     inkscape:document-units="px"
     inkscape:current-layer="layer1"
     showgrid="false"
     inkscape:window-width="1360"
     inkscape:window-height="706"
     inkscape:window-x="-8"
     inkscape:window-y="-8"
     inkscape:window-maximized="1" />
  <metadata
     id="metadata7">
    <rdf:RDF>
      <cc:Work
         rdf:about="">
        <dc:format>image/svg+xml</dc:format>
        <dc:type
           rdf:resource="http://purl.org/dc/dcmitype/StillImage" />
        <dc:title />
      </cc:Work>
    </rdf:RDF>
  </metadata>
  <g
     inkscape:label="Layer 1"
     inkscape:groupmode="layer"
     id="layer1">
    <path
       style="fill:#fe4400"
       d="m 188.28308,678.85405 c -35.59635,-1.7036 -72.05767,-21.23743 -88.906987,-53.27973 -10.3756,-27.19913 -3.66147,-59.46186 14.927007,-81.61264 17.89631,-25.54006 45.42593,-46.15552 76.55101,-51.45749 15.95081,-7.31686 39.61958,1.66586 55.02859,10.92012 29.76966,21.7363 51.90266,58.13353 48.13908,96.0062 -1.57855,43.54996 -43.19349,74.39488 -83.67638,79.33435 -7.3393,0.50075 -14.71692,0.40175 -22.06232,0.0892 z m -66.36041,-71.76609 c 7.91998,-22.47642 17.55751,-45.30306 36.54364,-60.7358 7.85033,-8.28933 29.61302,-23.87686 8.15467,-16.53305 -31.0231,6.08288 -57.14646,39.48319 -48.96117,71.27277 2.2414,-0.0285 1.68014,10.50508 4.26286,5.99608 z m 423.9485,60.32813 c -37.707,0.29781 -74.13959,-19.45514 -97.29209,-48.64001 -15.40338,-19.89809 -11.84463,-46.85069 -3.2613,-68.69306 5.83208,-20.27022 19.50281,-39.43801 37.04452,-51.14375 31.40907,-18.42876 72.22847,-21.30533 105.42294,-6.2704 33.30714,16.05152 57.19044,52.57251 53.4495,90.03562 0.70971,27.11539 -12.17806,54.49189 -35.84918,68.60172 -17.05531,12.71758 -38.47288,17.62329 -59.51439,16.10988 z m -88.70659,-88.06543 c 5.14409,-24.40486 25.36723,-41.99662 42.60028,-58.53967 7.50784,-3.74109 27.56886,-16.83702 6.61882,-11.57241 -22.25578,5.29142 -43.60662,21.31182 -47.29945,45.1066 -0.54837,6.16135 -7.87505,22.30966 -1.91965,25.00548 z"
       id="path2996"
       inkscape:connector-curvature="0"
       inkscape:export-filename="C:\Users\Owner\Desktop\Pi\Imergers\Misc\Superclippy16png.png"
       inkscape:export-xdpi="0.58299989"
       inkscape:export-ydpi="0.58299989" />
    <path
       style="fill:#000000"
       d="M 50.790053,546.75819 C 41.603608,520.86 55.909133,493.1955 69.567473,471.58051 103.30827,421.1999 154.13465,383.72833 210.54579,362.42148 c 15.94948,-1.15377 12.4323,29.86833 13.86721,45.33815 0.82156,17.50513 8.85339,33.41062 -18.53245,42.19936 -41.47492,10.09517 -84.05319,23.12001 -115.848497,53.11507 -14.85585,12.52945 -29.93747,30.25072 -39.242,43.68413 z M 676.23329,530.96726 c -18.76155,-23.01269 -35.93609,-49.8757 -64.44511,-62.26497 -35.40398,-19.06467 -75.58002,-27.46372 -115.52812,-28.2881 -5.29019,-10.59253 -3.14652,-25.55489 -1.9625,-38.05572 -0.0504,-17.47867 2.32649,-40.50586 17.28617,-50.52542 23.67838,5.86618 47.84544,15.05819 68.28272,28.39726 46.67409,33.61462 82.51325,83.13495 97.26389,138.9181 -0.53723,1.4719 2.49064,15.5478 -0.89705,11.81885 z"
       id="path3010"
       inkscape:connector-curvature="0"
       sodipodi:nodetypes="ccccccccccccccc"
       inkscape:export-filename="C:\Users\Owner\Desktop\Pi\Imergers\Misc\Superclippy16png.png"
       inkscape:export-xdpi="0.58299989"
       inkscape:export-ydpi="0.58299989" />
  </g>
</svg>
