<?xml version="1.0" encoding="UTF-8" standalone="no"?>
<!-- Created with Inkscape (http://www.inkscape.org/) -->

<svg
   xmlns:dc="http://purl.org/dc/elements/1.1/"
   xmlns:cc="http://creativecommons.org/ns#"
   xmlns:rdf="http://www.w3.org/1999/02/22-rdf-syntax-ns#"
   xmlns:svg="http://www.w3.org/2000/svg"
   xmlns="http://www.w3.org/2000/svg"
   xmlns:xlink="http://www.w3.org/1999/xlink"
   xmlns:sodipodi="http://sodipodi.sourceforge.net/DTD/sodipodi-0.dtd"
   xmlns:inkscape="http://www.inkscape.org/namespaces/inkscape"
   version="1.1"
   width="150"
   height="50"
   id="svg2"
   xml:space="preserve"
   inkscape:version="0.48.4 r9939"
   sodipodi:docname="Reddit_logo.svg"><metadata
     id="metadata89"><rdf:RDF><cc:Work
         rdf:about=""><dc:format>image/svg+xml</dc:format><dc:type
           rdf:resource="http://purl.org/dc/dcmitype/StillImage" /><dc:title></dc:title></cc:Work></rdf:RDF></metadata><sodipodi:namedview
     pagecolor="#ffffff"
     bordercolor="#666666"
     borderopacity="1"
     objecttolerance="10"
     gridtolerance="10"
     guidetolerance="10"
     inkscape:pageopacity="0"
     inkscape:pageshadow="2"
     inkscape:window-width="1366"
     inkscape:window-height="706"
     id="namedview87"
     showgrid="false"
     inkscape:zoom="2.8284271"
     inkscape:cx="120.42523"
     inkscape:cy="-20.583283"
     inkscape:window-x="1432"
     inkscape:window-y="204"
     inkscape:window-maximized="1"
     inkscape:current-layer="svg2" /><defs
     id="defs6"><linearGradient
       id="linearGradient4434"><stop
         style="stop-color:#ff5700;stop-opacity:1;"
         offset="0"
         id="stop4436" /><stop
         id="stop4440"
         offset="0.80414009"
         style="stop-color:#ffa85b;stop-opacity:1;" /><stop
         id="stop4438"
         offset="1"
         style="stop-color:#ff5e22;stop-opacity:1;" /></linearGradient><linearGradient
       id="linearGradient3490"><stop
         id="stop3498"
         offset="0"
         style="stop-color:#ff5700;stop-opacity:1;" /><stop
         style="stop-color:#ff8543;stop-opacity:1;"
         offset="1"
         id="stop4282" /></linearGradient><clipPath
       id="clipPath20"><path
         d="M 0,792 612,792 612,0 0,0 0,792 z"
         id="path22" /></clipPath><linearGradient
       inkscape:collect="always"
       xlink:href="#linearGradient3490"
       id="linearGradient3496"
       x1="-0.16030121"
       y1="-0.44659385"
       x2="-3.7149868"
       y2="1.3158907"
       gradientUnits="userSpaceOnUse" /><clipPath
       id="clipPath20-2"><path
         id="path22-0"
         d="M 0,792 612,792 612,0 0,0 0,792 z" /></clipPath></defs><rect
     style="fill:#ff5700;fill-opacity:1;stroke:#000000;stroke-width:0;stroke-miterlimit:4;stroke-opacity:0;stroke-dasharray:none"
     id="rect4479"
     width="21.386999"
     height="5.5593243"
     x="40.003998"
     y="37.533531" /><g
     id="g4481"
     transform="matrix(7.4781468,0,0,-2.0479975,61.391852,43.135667)"
     style="fill:#ff5700;fill-opacity:1"><path
       inkscape:connector-curvature="0"
       style="fill:#ff5700;fill-opacity:1;fill-rule:nonzero;stroke:none"
       id="path4483"
       d="m 0,0 c 0,-0.79 -0.64,-1.43 -1.43,-1.43 -0.789,0 -1.43,0.64 -1.43,1.43 0,0.791 0.641,1.431 1.43,1.431 C -0.64,1.431 0,0.791 0,0" /></g><g
     style="fill:#ffffff;fill-opacity:1"
     transform="matrix(7.4781468,0,0,-2.0479975,61.391852,37.57502)"
     id="g4485"><path
       d="m 0,0 c 0,-0.79 -0.64,-1.43 -1.43,-1.43 -0.789,0 -1.43,0.64 -1.43,1.43 0,0.791 0.641,1.431 1.43,1.431 C -0.64,1.431 0,0.791 0,0"
       id="path4487"
       style="fill:#ffffff;fill-opacity:1;fill-rule:nonzero;stroke:none"
       inkscape:connector-curvature="0" /></g><rect
     y="31.533533"
     x="40.003998"
     height="5.5593243"
     width="21.386999"
     id="rect4467"
     style="fill:#ff5700;fill-opacity:1;stroke:#000000;stroke-width:0;stroke-miterlimit:4;stroke-opacity:0;stroke-dasharray:none" /><g
     style="fill:#ff5700;fill-opacity:1"
     transform="matrix(7.4781468,0,0,-2.0479975,61.391852,37.135667)"
     id="g4469"><path
       d="m 0,0 c 0,-0.79 -0.64,-1.43 -1.43,-1.43 -0.789,0 -1.43,0.64 -1.43,1.43 0,0.791 0.641,1.431 1.43,1.431 C -0.64,1.431 0,0.791 0,0"
       id="path4471"
       style="fill:#ff5700;fill-opacity:1;fill-rule:nonzero;stroke:none"
       inkscape:connector-curvature="0" /></g><g
     id="g4473"
     transform="matrix(7.4781468,0,0,-2.0479975,61.391852,31.57502)"
     style="fill:#ffffff;fill-opacity:1"><path
       inkscape:connector-curvature="0"
       style="fill:#ffffff;fill-opacity:1;fill-rule:nonzero;stroke:none"
       id="path4475"
       d="m 0,0 c 0,-0.79 -0.64,-1.43 -1.43,-1.43 -0.789,0 -1.43,0.64 -1.43,1.43 0,0.791 0.641,1.431 1.43,1.431 C -0.64,1.431 0,0.791 0,0" /></g><rect
     style="fill:#ff5700;fill-opacity:1;stroke:#000000;stroke-width:0;stroke-miterlimit:4;stroke-opacity:0;stroke-dasharray:none"
     id="rect4292"
     width="21.386999"
     height="5.5593243"
     x="40.003998"
     y="25.533533" /><g
     id="g4442"
     transform="matrix(7.4781468,0,0,-2.0479975,61.391852,31.135667)"
     style="fill:#ff5700;fill-opacity:1"><path
       inkscape:connector-curvature="0"
       style="fill:#ff5700;fill-opacity:1;fill-rule:nonzero;stroke:none"
       id="path4444"
       d="m 0,0 c 0,-0.79 -0.64,-1.43 -1.43,-1.43 -0.789,0 -1.43,0.64 -1.43,1.43 0,0.791 0.641,1.431 1.43,1.431 C -0.64,1.431 0,0.791 0,0" /></g><g
     style="fill:#ff5700;fill-opacity:1"
     transform="matrix(7.4781468,0,0,-2.0479975,61.391852,25.57502)"
     id="g4284"><path
       d="m 0,0 c 0,-0.79 -0.64,-1.43 -1.43,-1.43 -0.789,0 -1.43,0.64 -1.43,1.43 0,0.791 0.641,1.431 1.43,1.431 C -0.64,1.431 0,0.791 0,0"
       id="path4286"
       style="fill:#ff5700;fill-opacity:1;fill-rule:nonzero;stroke:none"
       inkscape:connector-curvature="0" /></g><g
     id="g4504"
     transform="matrix(6.4999619,0,0,-1.7801075,59.993048,25.309722)"
     style="fill:#ffffff;fill-opacity:1"><path
       inkscape:connector-curvature="0"
       style="fill:#ffffff;fill-opacity:1;fill-rule:nonzero;stroke:none"
       id="path4506"
       d="m 0,0 c 0,-0.79 -0.64,-1.43 -1.43,-1.43 -0.789,0 -1.43,0.64 -1.43,1.43 0,0.791 0.641,1.431 1.43,1.431 C -0.64,1.431 0,0.791 0,0" /></g><g
     id="g4943"
     transform="matrix(1.0717451,-0.32879368,0.59967545,0.58762289,-17.730442,26.694544)"><g
       id="g48"
       transform="matrix(0.23963276,0,0,-0.23963276,47.443749,24.332013)"><path
         style="fill:#ffffff;fill-opacity:1;fill-rule:nonzero;stroke:none"
         id="path50"
         d="m 0,0 c 0,-1.493 -1.21,-2.702 -2.703,-2.702 -1.492,0 -2.701,1.209 -2.701,2.702 0,1.493 1.209,2.703 2.701,2.703 C -1.21,2.703 0,1.493 0,0"
         inkscape:connector-curvature="0" /></g><g
       id="g52"
       transform="matrix(0.23963276,0,0,-0.23963276,47.443749,24.332013)"><path
         style="fill:none;stroke:#000000;stroke-width:1.10000002;stroke-linecap:butt;stroke-linejoin:miter;stroke-miterlimit:4;stroke-opacity:1;stroke-dasharray:none"
         id="path54"
         d="m 0,0 c 0,-1.493 -1.21,-2.702 -2.703,-2.702 -1.492,0 -2.701,1.209 -2.701,2.702 0,1.493 1.209,2.703 2.701,2.703 C -1.21,2.703 0,1.493 0,0 z"
         inkscape:connector-curvature="0" /></g><g
       id="g56"
       transform="matrix(0.23963276,0,0,-0.23963276,52.740232,24.332013)"><path
         style="fill:#ffffff;fill-opacity:1;fill-rule:nonzero;stroke:none"
         id="path58"
         d="m 0,0 c 0,-1.493 -1.21,-2.702 -2.703,-2.702 -1.492,0 -2.701,1.209 -2.701,2.702 0,1.493 1.209,2.703 2.701,2.703 C -1.21,2.703 0,1.493 0,0"
         inkscape:connector-curvature="0" /></g><g
       id="g60"
       transform="matrix(0.23963276,0,0,-0.23963276,52.740232,24.332013)"><path
         style="fill:none;stroke:#000000;stroke-width:1.10000002;stroke-linecap:butt;stroke-linejoin:miter;stroke-miterlimit:4;stroke-opacity:1;stroke-dasharray:none"
         id="path62"
         d="m 0,0 c 0,-1.493 -1.21,-2.702 -2.703,-2.702 -1.492,0 -2.701,1.209 -2.701,2.702 0,1.493 1.209,2.703 2.701,2.703 C -1.21,2.703 0,1.493 0,0 z"
         inkscape:connector-curvature="0" /></g><g
       id="g92"
       transform="matrix(0.23963276,0,0,-0.23963276,52.363122,25.22256)"><path
         style="fill:#ffffff;fill-opacity:1;fill-rule:nonzero;stroke:none"
         id="path94"
         d="m 0,0 c 0,-4.411 -5.479,-7.986 -12.239,-7.986 -6.759,0 -12.238,3.575 -12.238,7.986 0,4.411 5.479,7.987 12.238,7.987 C -5.479,7.987 0,4.411 0,0"
         inkscape:connector-curvature="0" /></g><g
       id="g96"
       transform="matrix(0.23963276,0,0,-0.23963276,52.363122,25.22256)"><path
         style="fill:none;stroke:#000000;stroke-width:1.10000002;stroke-linecap:butt;stroke-linejoin:miter;stroke-miterlimit:4;stroke-opacity:1;stroke-dasharray:none"
         id="path98"
         d="m 0,0 c 0,-4.411 -5.479,-7.986 -12.239,-7.986 -6.759,0 -12.238,3.575 -12.238,7.986 0,4.411 5.479,7.987 12.238,7.987 C -5.479,7.987 0,4.411 0,0 z"
         inkscape:connector-curvature="0" /></g><g
       id="g156"
       transform="matrix(0.23963276,0,0,-0.23963276,48.754923,24.848948)"><path
         style="fill:#ff4500;fill-opacity:1;fill-rule:nonzero;stroke:none"
         id="path158"
         d="m 0,0 c 0,-0.79 -0.641,-1.43 -1.43,-1.43 -0.791,0 -1.431,0.64 -1.431,1.43 0,0.791 0.64,1.431 1.431,1.431 C -0.641,1.431 0,0.791 0,0"
         inkscape:connector-curvature="0" /></g><g
       id="g160"
       transform="matrix(0.23963276,0,0,-0.23963276,48.754923,24.848948)"><path
         style="fill:none;stroke:#ff4500;stroke-width:1.10000002;stroke-linecap:butt;stroke-linejoin:miter;stroke-miterlimit:4;stroke-opacity:1;stroke-dasharray:none"
         id="path162"
         d="m 0,0 c 0,-0.79 -0.641,-1.43 -1.43,-1.43 -0.791,0 -1.431,0.64 -1.431,1.43 0,0.791 0.64,1.431 1.431,1.431 C -0.641,1.431 0,0.791 0,0 z"
         inkscape:connector-curvature="0" /></g><g
       id="g164"
       transform="matrix(0.23963276,0,0,-0.23963276,50.821181,24.848948)"><path
         style="fill:#ff4500;fill-opacity:1;fill-rule:nonzero;stroke:none"
         id="path166"
         d="m 0,0 c 0,-0.79 -0.64,-1.43 -1.43,-1.43 -0.789,0 -1.43,0.64 -1.43,1.43 0,0.791 0.641,1.431 1.43,1.431 C -0.64,1.431 0,0.791 0,0"
         inkscape:connector-curvature="0" /></g><g
       id="g168"
       transform="matrix(0.23963276,0,0,-0.23963276,50.821181,24.848948)"><path
         style="fill:none;stroke:#ff4500;stroke-width:1.10000002;stroke-linecap:butt;stroke-linejoin:miter;stroke-miterlimit:4;stroke-opacity:1;stroke-dasharray:none"
         id="path170"
         d="m 0,0 c 0,-0.79 -0.64,-1.43 -1.43,-1.43 -0.789,0 -1.43,0.64 -1.43,1.43 0,0.791 0.641,1.431 1.43,1.431 C -0.64,1.431 0,0.791 0,0 z"
         inkscape:connector-curvature="0" /></g><g
       id="g172"
       transform="matrix(0.23963276,0,0,-0.23963276,48.431419,26.103498)"><path
         style="fill:none;stroke:#000000;stroke-width:1.10000002;stroke-linecap:round;stroke-linejoin:miter;stroke-miterlimit:4;stroke-opacity:1;stroke-dasharray:none"
         id="path174"
         d="M 0,0 C 1.066,-1.066 2.786,-1.271 4.212,-1.271"
         inkscape:connector-curvature="0" /></g><g
       id="g176"
       transform="matrix(0.23963276,0,0,-0.23963276,50.457514,26.103498)"><path
         style="fill:none;stroke:#000000;stroke-width:1.10000002;stroke-linecap:round;stroke-linejoin:miter;stroke-miterlimit:4;stroke-opacity:1;stroke-dasharray:none"
         id="path178"
         d="M 0,0 C -1.067,-1.066 -2.785,-1.271 -4.212,-1.271"
         inkscape:connector-curvature="0" /></g></g></svg>